# xmcd CD database file
# Copyright (C) 1997 Ti Kan
# 
# Track frame offsets:
#     150
#     21042
#     37197
#     55440
#     72535
#     89297
#     109340
#     128515
#     140495
# 
# Disc length: 2241 seconds
# 
# Revision: 1
# Processed by: cddbd v1.4b41PL1 Copyright (c) Steve Scherf et al.
# Submitted via: DiscPlay 4.0.4
# 
DISCID=8208bf09
DTITLE=Gladys Knight and the Pips - Imaggination
DYEAR=1900
DGENRE=
TTITLE0=Midnight Train to Georgia
TTITLE1=I've Got to use my imagation
TTITLE2=Strom of Troubled Times
TTITLE3=Bets Thins That Ever Happened To Me
TTITLE4=Once In A Lifetime Thing
TTITLE5=Where Peaceful water flow
TTITLE6=I can see clearly now
TTITLE7=Perfect love
TTITLE8=Window Raisin' Granny
EXTD=
EXTT0=
EXTT1=
EXTT2=
EXTT3=
EXTT4=
EXTT5=
EXTT6=
EXTT7=
EXTT8=
PLAYORDER=
